<?xml version="1.0" encoding="UTF-8" standalone="no"?>
<svg id="svg2" xmlns:rdf="http://www.w3.org/1999/02/22-rdf-syntax-ns#" xmlns="http://www.w3.org/2000/svg" height="1631.3" viewBox="0 0 2001.0663 1631.317" width="2001.1" version="1.1" xmlns:cc="http://creativecommons.org/ns#" xmlns:xlink="http://www.w3.org/1999/xlink" xmlns:dc="http://purl.org/dc/elements/1.1/">
 <defs id="defs6">
  <filter id="filter4403" style="color-interpolation-filters:sRGB" height="1.1081" width="1.0864" y="-.054035" x="-.043178">
   <feGaussianBlur id="feGaussianBlur4405" stdDeviation="20.424375"/>
  </filter>
  <linearGradient id="linearGradient4323" y2="1072.9" gradientUnits="userSpaceOnUse" x2="1876.4" gradientTransform="matrix(1.6209 0 0 1.6209 -1295.4 -431.65)" y1="665.75" x1="1171.2">
   <stop id="stop4319" stop-color="#373b3f" offset="0"/>
   <stop id="stop4321" stop-color="#373b3f" stop-opacity="0" offset="1"/>
  </linearGradient>
  <linearGradient id="linearGradient4331" y2="1064.1" gradientUnits="userSpaceOnUse" x2="1438.6" gradientTransform="matrix(1.6209 0 0 1.6209 -1295.4 -431.65)" y1="1064.1" x1="1409.5">
   <stop id="stop4327" stop-color="#373b3f" offset="0"/>
   <stop id="stop4329" stop-color="#373b3f" stop-opacity="0" offset="1"/>
  </linearGradient>
  <linearGradient id="linearGradient4339" y2="1110.7" gradientUnits="userSpaceOnUse" x2="1421.4" gradientTransform="matrix(1.6209 0 0 1.6209 -1295.4 -431.65)" y1="1098.1" x1="1421.4">
   <stop id="stop4335" stop-color="#7b7b7b" offset="0"/>
   <stop id="stop4337" stop-color="#7b7b7b" stop-opacity="0" offset="1"/>
  </linearGradient>
 </defs>
 <path id="path4381" d="m65.556 49.018c-9.1619 0-16.537 7.3752-16.537 16.537v749.13c0 9.1619 7.3752 16.537 16.537 16.537h426.57c-0.1425 3.1815-0.3554 7.5266-0.6504 12.535-1.1862 20.144-3.7608 51.091-8.7852 59.312-7.5863 12.414-66.207 44.826-66.207 44.826v8.2774h110 180.35 110v-8.2774s-58.621-32.412-66.207-44.826c-5.0244-8.2218-7.599-39.169-8.7851-59.312-0.01-0.1088-0.011-0.2023-0.018-0.3105-0.2848-4.8694-0.4915-9.1141-0.6309-12.225h426.57c9.1619 0 16.537-7.3752 16.537-16.537v-749.13c0-9.1619-7.3752-16.537-16.537-16.537h-1102.2zm19.324 41.814h1063.6v698.58h-1063.6v-698.58z" fill-rule="evenodd" transform="matrix(1.6209 0 0 1.6209 1 .99994)" filter="url(#filter4403)"/>
 <path id="rect4342" d="m108.3 116.35h1786.1v1190.7h-1786.1z" fill="#0d47a1"/>
 <path id="path4173" d="m802.39 1321.7-3.3536 17.885s-3.3549 105.08-15.651 125.2c-12.297 20.121-107.31 72.661-107.31 72.661v13.414h178.3 292.32 178.3v-13.414s-95.018-52.539-107.31-72.661c-12.296-20.122-15.651-125.2-15.651-125.2l-3.3538-17.885-198.14 3.8596-198.14-3.8596z" fill-rule="evenodd" fill="#c0c0c0"/>
 <path id="rect4171" d="m802.39 1321.7-3.3536 17.885s-0.43326 12.417-1.4137 29.066h405.82c-0.9803-16.649-1.4134-29.066-1.4134-29.066l-3.3538-17.885-198.14 3.8596-198.14-3.8596z" fill="url(#linearGradient4339)"/>
 <path id="rect4140" d="m107.26 80.454c-14.851 0-26.805 10.928-26.805 24.503v1110c0 13.575 11.954 24.503 26.805 24.503h1.0384v16.136l1754.2 3.4222 6.2842-19.558h25.042c14.85 0 26.805-10.929 26.805-24.503v-1110c0-13.575-11.954-24.503-26.805-24.503h-1786.6zm31.322 61.955h1723.9v1017.3h-1723.9v-1017.3z"/>
 <path id="rect4255" d="m80.454 1214.5v107.04c0 14.85 11.954 26.805 26.805 26.805h1786.6c14.85 0 26.805-11.954 26.805-26.805v-107.04h-58.131-1723.9z" fill="#bfbfbf"/>
 <path id="path4268" d="m1017.5 1237.5v0.018c0 0.018-0.3424 0.087-1.0267 0.2053-0.6844 0.1184-1.5771 0.372-2.6782 0.7589-1.1011 0.3868-2.1425 0.8479-3.1246 1.3836-0.9818 0.5356-1.9044 1.1309-2.7674 1.7856-0.8629 0.6545-1.6367 1.3688-2.3211 2.1425-0.6845 0.7736-1.3241 1.592-1.9194 2.455-0.5951 0.8628-1.1248 1.7794-1.589 2.7497-0.4582 0.9643-0.8213 1.9817-1.0891 3.0529-0.2679 1.0714-0.4227 2.2915-0.4644 3.6603l-0.071 2.0531 1.4732-0.016c0.9818-0.018 2.0087-0.1604 3.0799-0.4284 1.0713-0.2679 2.0472-0.6308 2.928-1.089 0.8748-0.4643 1.7497-1.0475 2.6247-1.7498 0.8808-0.6963 1.6843-1.4521 2.4103-2.2676 0.732-0.8213 1.4255-1.7528 2.0802-2.7943 0.6545-1.0414 1.1902-2.0532 1.6068-3.0353 0.4166-0.9819 0.744-1.9638 0.9821-2.9459s0.3868-2.0532 0.4462-3.2138c0.06-1.1607 0.081-1.9045 0.063-2.2319l-0.016-0.491h-0.625zm-0.5805 21.291c-1.3388 0-2.6038 0.1184-3.794 0.3573-1.1904 0.2381-3.3178 0.8777-6.3829 1.9194-3.065 1.0415-4.8655 1.5772-5.401 1.6068-0.5355 0.029-0.9969 0-1.3838-0.091-0.38675-0.089-1.6664-0.5207-3.8388-1.2945-2.1722-0.7736-3.9725-1.339-5.401-1.6961-1.4283-0.3571-2.8268-0.5357-4.1958-0.5357-1.3688 0-2.6335 0.1183-3.794 0.3571-1.1606 0.2381-2.3211 0.5952-3.4817 1.0712-1.1604 0.4763-2.306 1.0714-3.4371 1.7856-1.1306 0.7142-2.0679 1.4136-2.8119 2.0979-0.74399 0.6844-1.4492 1.4224-2.1159 2.214-0.67251 0.7855-1.3358 1.7138-1.9906 2.7852-0.65468 1.0712-1.235 2.1871-1.7408 3.3478-0.50604 1.1605-0.93736 2.4252-1.2944 3.794-0.35709 1.3689-0.62502 2.8268-0.80332 4.3745l-0.26793 2.3209h-0.0438v4.0173l0.37459 3.1246c0.2561 2.083 0.62226 4.1066 1.0983 6.0705 0.47622 1.9641 1.0563 3.8984 1.7408 5.8028 0.68434 1.9044 1.4343 3.7138 2.2496 5.4279 0.8213 1.7079 1.6723 3.2674 2.5532 4.6779 0.87463 1.4163 1.928 2.9518 3.1601 4.6063 1.238 1.6487 2.229 2.8746 2.9729 3.6779 0.74399 0.8037 1.5473 1.5476 2.4103 2.232 0.86312 0.6843 1.6666 1.2051 2.4104 1.5622 0.74399 0.3573 1.2648 0.5803 1.5624 0.6696 0.29743 0.091 0.50572 0.1491 0.62485 0.1786l0.17846 0.044 0.31267 0.044 0.31219 0.045v0.044h1.7856v-0.044l0.35708-0.045 0.35709-0.044 1.6515-0.4464c1.1011-0.2974 2.5296-0.7588 4.2852-1.3836 1.7558-0.625 3.0946-1.0267 4.0172-1.2053 0.92245-0.1786 1.964-0.2678 3.1246-0.2678 1.1605 0 2.2913 0.12 3.3923 0.3569 1.1011 0.2382 2.6186 0.6995 4.5528 1.384 1.9344 0.6843 3.3776 1.1158 4.3299 1.2944 0.9523 0.1785 1.6664 0.2767 2.1425 0.2947l0.7142 0.018 0.091-0.018 0.091-0.026 0.3569-0.044c0.2381-0.029 0.7591-0.1637 1.5624-0.4018 0.8035-0.238 1.607-0.5951 2.4103-1.0713 0.8036-0.4762 1.586-1.0623 2.3478-1.7585 0.7559-0.7023 1.5892-1.5951 2.4998-2.6782 0.9046-1.0892 1.9222-2.4521 3.0531-4.0888 1.1307-1.6367 2.1187-3.2375 2.9638-4.8028 0.8511-1.5593 1.6723-3.321 2.4639-5.285l1.1784-2.9458v-0.1788l-0.089-0.016-0.091-0.026-0.089-0.044-0.091-0.044-0.133-0.044c-0.091-0.031-0.6099-0.3271-1.5622-0.8926-0.9522-0.5654-1.7915-1.1544-2.5175-1.7676-0.7322-0.6068-1.4402-1.2675-2.1245-1.9818-0.6845-0.7142-1.3392-1.5473-1.9642-2.4996-0.6249-0.9523-1.1606-1.9641-1.6068-3.0353-0.4464-1.0713-0.7888-2.1723-1.0267-3.3031-0.2381-1.1309-0.3571-2.5889-0.3571-4.3744 0-1.7853 0.1037-3.184 0.3125-4.1959 0.2081-1.0117 0.5059-2.0084 0.8926-2.9904 0.3868-0.9821 0.8928-1.9642 1.5177-2.9461 0.625-0.9821 1.339-1.8896 2.1425-2.7228 0.8035-0.8333 1.7317-1.6426 2.7853-2.4282l1.5891-1.1873 0.018-0.026 0.026-0.018v-0.1785l-0.026-0.018c-0.016-0.018-0.055-0.078-0.1248-0.1784-0.078-0.107-0.4433-0.5477-1.098-1.3214-0.6545-0.7738-1.3838-1.5029-2.1871-2.1872-0.8035-0.6845-1.6724-1.3003-2.6069-1.848-0.9403-0.5534-1.946-1.0385-3.0173-1.4553-1.0714-0.4165-2.3509-0.7736-3.8387-1.071-1.488-0.2978-2.9014-0.4464-4.2404-0.4464z" fill-rule="evenodd" stroke="#221e20" stroke-width=".044636" fill="#221e20"/>
 <path id="path4304" d="m1257.7 80.454-35.771 61.955h640.56v1017.3h-1227.9l-31.617 54.762h1259.5 58.131v-1109.5c0-13.575-11.954-24.503-26.805-24.503h-636.12z" fill-rule="evenodd" fill="url(#linearGradient4323)"/>
 <path id="path4312" d="m1026.4 1260.9-37.138 64.326 1.548-0.4179c1.1011-0.2974 2.531-0.7587 4.2866-1.3836 1.7558-0.625 3.0915-1.0242 4.0141-1.2028 0.92244-0.1787 1.9642-0.2693 3.1247-0.2693 1.1606 0 2.2926 0.1216 3.3937 0.3578 1.1011 0.2381 2.6182 0.6991 4.5524 1.3836 1.9344 0.6843 3.3786 1.1161 4.3309 1.2947 0.9523 0.1785 1.6672 0.2764 2.1431 0.2944l0.7124 0.019 0.092-0.019 0.092-0.026 0.3545-0.044c0.2381-0.029 0.7607-0.164 1.564-0.4022 0.8035-0.2379 1.6058-0.5937 2.4091-1.0699 0.8037-0.4762 1.5872-1.0641 2.349-1.7603 0.7558-0.7023 1.5872-1.5951 2.4978-2.6782 0.9046-1.0892 1.9242-2.4503 3.0551-4.0871 1.1307-1.6366 2.118-3.2372 2.9631-4.8025 0.8512-1.5593 1.6715-3.3229 2.4631-5.2869l1.1776-2.9442v-0.1805l-0.089-0.016-0.089-0.026-0.089-0.044-0.092-0.044-0.1329-0.044c-0.091-0.031-0.6118-0.3272-1.564-0.8928-0.9523-0.5653-1.7908-1.1532-2.5168-1.7664-0.7322-0.6069-1.4398-1.2676-2.1242-1.9819-0.6845-0.7141-1.3379-1.5455-1.9629-2.4978-0.6248-0.9523-1.162-1.9647-1.6082-3.0359-0.4464-1.0713-0.7878-2.1744-1.0257-3.3052-0.2381-1.1309-0.3578-2.5863-0.3578-4.3718 0-1.7853 0.1054-3.1861 0.3135-4.198 0.2081-1.0118 0.5061-2.0065 0.8928-2.9884 0.3868-0.9821 0.8915-1.9655 1.5164-2.9475 0.625-0.9821 1.3398-1.8894 2.1433-2.7226 0.8034-0.8333 1.7322-1.6424 2.7858-2.4281l1.5893-1.1873 0.016-0.026 0.026-0.02v-0.1773l-0.026-0.019c-0.016-0.018-0.053-0.076-0.1232-0.1774-0.078-0.107-0.4438-0.5496-1.0985-1.3233-0.6545-0.7738-1.3844-1.5032-2.1877-2.1875-0.8035-0.6845-1.671-1.298-2.6054-1.8457-0.5054-0.2975-1.0332-0.5714-1.5765-0.8295z" fill-rule="evenodd" fill="url(#linearGradient4331)"/>
</svg>
