<?xml version="1.0" encoding="utf-8"?>
<!-- Generator: Adobe Illustrator 19.2.0, SVG Export Plug-In . SVG Version: 6.00 Build 0)  -->
<svg version="1.1"
	 id="svg2" xmlns:cc="http://creativecommons.org/ns#" xmlns:dc="http://purl.org/dc/elements/1.1/" xmlns:rdf="http://www.w3.org/1999/02/22-rdf-syntax-ns#"
	 xmlns="http://www.w3.org/2000/svg" xmlns:xlink="http://www.w3.org/1999/xlink" x="0px" y="0px" viewBox="0 0 300 178"
	 style="enable-background:new 0 0 300 178;" xml:space="preserve">
<style type="text/css">
	.st0{fill:#D0D0D2;stroke:#B3B7B7;stroke-width:2;stroke-linecap:round;stroke-linejoin:bevel;}
	.st1{stroke:#000000;stroke-width:1.0088;stroke-linecap:round;stroke-linejoin:bevel;}
	.st2{opacity:0.1642;fill:url(#path3241_1_);enable-background:new    ;}
	.st3{fill:url(#rect3279_1_);stroke:url(#rect3279_2_);stroke-width:0.8048;stroke-linecap:round;stroke-linejoin:bevel;}
	.st4{opacity:0.8706;fill:url(#rect3323_1_);enable-background:new    ;}
	.st5{fill:url(#rect3481_1_);}
	.st6{opacity:0.8706;fill:url(#path3917_1_);enable-background:new    ;}
	.st7{opacity:0.8706;fill:url(#path3901_1_);enable-background:new    ;}
	.st8{fill:url(#rect3341_1_);}
	.st9{opacity:0.2792;fill:none;stroke:#FFFFFF;stroke-linecap:round;stroke-linejoin:bevel;enable-background:new    ;}
	.st10{fill:url(#rect3957_1_);}
	.st11{opacity:5.416700e-02;fill:url(#path3229_1_);enable-background:new    ;}
	.st12{fill:#F1F1F1;}
	.st13{fill:none;stroke:#333C4E;stroke-width:0.5;stroke-miterlimit:10;}
	.st14{fill:#5169B0;}
	.st15{opacity:0.3;fill:#5169B0;}
	.st16{fill:none;}
	.st17{fill:#333C4E;}
	.st18{font-family:'Lato-Light';}
	.st19{font-size:4.1815px;}
	.st20{font-family:'Lato-Black';}
	.st21{font-size:8px;}
	.st22{opacity:0.7;}
	.st23{font-size:4px;}
	.st24{opacity:0.5;}
	.st25{font-family:'Lato-Regular';}
	.st26{font-size:3px;}
</style>
<path id="rect2453" class="st0" d="M43.6,6.9h213.1c4.7,0,8.5,3.9,8.5,8.8v142.7c0,4.9-3.8,8.8-8.5,8.8H43.6c-4.7,0-8.5-3.9-8.5-8.8
	V15.7C35.2,10.8,38.9,6.9,43.6,6.9z"/>
<path id="rect3225" class="st1" d="M43.6,8.4h212.8c4,0,7.2,3.2,7.2,7.2v141.7c0,4-3.2,7.2-7.2,7.2H43.6c-4,0-7.2-3.2-7.2-7.2V15.6
	C36.4,11.6,39.6,8.4,43.6,8.4z"/>
<radialGradient id="path3241_1_" cx="368.78" cy="114.57" r="3.4688" gradientTransform="matrix(0.5328 0 0 -0.5061 -47.7942 71.9572)" gradientUnits="userSpaceOnUse">
	<stop  offset="0" style="stop-color:#FFFFFF"/>
	<stop  offset="1" style="stop-color:#FFFFFF;stop-opacity:0.8547"/>
</radialGradient>
<path id="path3241" class="st2" d="M150.5,13.6c0,1-0.8,1.8-1.8,1.8c-1,0-1.8-0.8-1.8-1.8s0.8-1.8,1.8-1.8
	C149.7,11.9,150.5,12.6,150.5,13.6z"/>
<linearGradient id="rect3279_1_" gradientUnits="userSpaceOnUse" x1="19.5903" y1="-222.1712" x2="725.0473" y2="-222.1712" gradientTransform="matrix(0.4251 0 0 -0.3127 -8.1572 94.8959)">
	<stop  offset="0" style="stop-color:#B3B3B3"/>
	<stop  offset="2.000000e-02" style="stop-color:#E9E9E9"/>
	<stop  offset="4.000000e-02" style="stop-color:#D4D4D7"/>
	<stop  offset="0.96" style="stop-color:#E4E4E6"/>
	<stop  offset="0.98" style="stop-color:#F4F4F4"/>
	<stop  offset="1" style="stop-color:#B3B3B3"/>
</linearGradient>
<linearGradient id="rect3279_2_" gradientUnits="userSpaceOnUse" x1="18.1991" y1="-239.966" x2="725.5078" y2="-239.966" gradientTransform="matrix(0.4239 0 0 -0.4241 -7.7146 62.6155)">
	<stop  offset="0" style="stop-color:#B3B3B3"/>
	<stop  offset="2.000000e-02" style="stop-color:#E9E9E9"/>
	<stop  offset="4.000000e-02" style="stop-color:#D4D4D7"/>
	<stop  offset="0.96" style="stop-color:#E4E4E6"/>
	<stop  offset="0.98" style="stop-color:#F4F4F4"/>
	<stop  offset="1" style="stop-color:#B3B3B3"/>
</linearGradient>
<rect id="rect3279" x="0.2" y="161" class="st3" width="299.5" height="6.8"/>
<linearGradient id="rect3323_1_" gradientUnits="userSpaceOnUse" x1="367.4221" y1="-249.67" x2="367.4221" y2="-256.52" gradientTransform="matrix(0.424 0 0 -0.3664 -7.1668 71.1279)">
	<stop  offset="0" style="stop-color:#C6C6C6"/>
	<stop  offset="1" style="stop-color:#F2F2F2"/>
</linearGradient>
<path id="rect3323" class="st4" d="M126,160.8v0.7c0,2,1.9,3.7,4.2,3.7h36.9c2.3,0,4.2-1.6,4.2-3.7v-0.7H126z"/>
<linearGradient id="rect3481_1_" gradientUnits="userSpaceOnUse" x1="18.142" y1="-248.0701" x2="725.142" y2="-248.0701" gradientTransform="matrix(0.4241 0 0 -1.0159 -7.6936 -84.4959)">
	<stop  offset="0" style="stop-color:#CFCFCF;stop-opacity:0"/>
	<stop  offset="0.5" style="stop-color:#FFFFFF;stop-opacity:0.8461"/>
	<stop  offset="1" style="stop-color:#CFCFCF;stop-opacity:0"/>
</linearGradient>
<rect id="rect3481" y="167.1" class="st5" width="299.8" height="0.8"/>
<linearGradient id="path3917_1_" gradientUnits="userSpaceOnUse" x1="310.8759" y1="-255.4292" x2="318.006" y2="-254.7693" gradientTransform="matrix(-0.4243 0 0 -0.36 304.5156 72.7998)">
	<stop  offset="0" style="stop-color:#000000;stop-opacity:0.7009"/>
	<stop  offset="1" style="stop-color:#4B5151;stop-opacity:0"/>
</linearGradient>
<path id="path3917" class="st6" d="M171.3,160.9v0.6c0,2-1.9,3.6-4.2,3.6h-36.9c-2.4,0-4.2-1.6-4.2-3.6v-0.6H171.3L171.3,160.9z"/>
<linearGradient id="path3901_1_" gradientUnits="userSpaceOnUse" x1="310.8766" y1="-255.436" x2="318.0066" y2="-254.776" gradientTransform="matrix(0.424 0 0 -0.3664 -7.1362 71.1224)">
	<stop  offset="0" style="stop-color:#000000;stop-opacity:0.7009"/>
	<stop  offset="1" style="stop-color:#4B5151;stop-opacity:0"/>
</linearGradient>
<path id="path3901" class="st7" d="M126,160.8v0.7c0,2,1.9,3.7,4.2,3.7h36.9c2.3,0,4.2-1.6,4.2-3.7v-0.7H126z"/>
<linearGradient id="rect3341_1_" gradientUnits="userSpaceOnUse" x1="371.6552" y1="-254.3" x2="371.6552" y2="-269.04" gradientTransform="matrix(0.4276 0 0 -0.324 -9.0074 85.2665)">
	<stop  offset="0" style="stop-color:#D1D4D6"/>
	<stop  offset="0.5" style="stop-color:#A1A5A6"/>
	<stop  offset="1" style="stop-color:#000000"/>
</linearGradient>
<path id="rect3341" class="st8" d="M0.2,167.9c2.6,2.1,12.8,2.9,16.8,3c91.6,0,262.9,0,262.9,0c3.2,0,18.4-1.4,19.8-3H0.2z"/>
<path id="rect3955" class="st9" d="M44,8.6h211.9c4,0,7.2,3.1,7.2,6.8v134.5c0,3.8-3.2,6.8-7.2,6.8H44c-4,0-7.2-3.1-7.2-6.8V15.5
	C36.8,11.7,40,8.6,44,8.6z"/>
<linearGradient id="rect3957_1_" gradientUnits="userSpaceOnUse" x1="375.9376" y1="-223.8618" x2="375.9376" y2="-234.9019" gradientTransform="matrix(0.6264 0 0 -0.3813 -86.5124 72.1376)">
	<stop  offset="0" style="stop-color:#000000"/>
	<stop  offset="0.5" style="stop-color:#4E4E4E"/>
	<stop  offset="1" style="stop-color:#212121"/>
</linearGradient>
<rect id="rect3957" x="55" y="157.5" class="st10" width="187.9" height="3.1"/>
<linearGradient id="path3229_1_" gradientUnits="userSpaceOnUse" x1="435.6832" y1="82.0597" x2="567.0031" y2="-243.2123" gradientTransform="matrix(0.5628 0 0 -0.4265 -98.6198 64.0013)">
	<stop  offset="0" style="stop-color:#FFFFFF"/>
	<stop  offset="1" style="stop-color:#FFFFFF;stop-opacity:0.8547"/>
</linearGradient>
<path id="path3229" class="st11" d="M204.4,8.7L93.5,163.1l169.4,0.4c0,0,0.5-140.3,0.3-146.6c-0.2-6.6-3.9-8.1-11.4-8.1
	C243.9,8.7,204.4,8.7,204.4,8.7L204.4,8.7z"/>
<rect x="44.5" y="18.2" class="st12" width="209.9" height="131.5"/>
<g>
	<circle class="st13" cx="116.7" cy="84.8" r="12.5"/>
	<path class="st14" d="M128.5,84.8h1.2c0-7.2-5.9-13.1-13.1-13.1V73C123.2,73,128.5,78.3,128.5,84.8z"/>
	<circle class="st15" cx="116.7" cy="84.8" r="6.9"/>
	<g>
		<rect x="110.6" y="83" class="st16" width="12.2" height="3.7"/>
		<text transform="matrix(1 0 0 1 112.645 86.042)" class="st17 st18 st19">25%</text>
	</g>
</g>
<g>
	<circle class="st13" cx="150.4" cy="84.8" r="12.5"/>
	<path class="st14" d="M150.4,71.7V73c6.5,0,11.9,5.3,11.9,11.9c0,6.5-5.3,11.9-11.9,11.9c-3,0-5.7-1.1-7.8-2.9l-0.9,0.9
		c2.3,2.2,5.2,3.3,8.6,3.3c7.2,0,13.1-5.9,13.1-13.1C163.6,77.6,157.7,71.7,150.4,71.7z"/>
	<circle class="st15" cx="150.4" cy="84.8" r="6.9"/>
	<g>
		<rect x="144.3" y="83" class="st16" width="12.2" height="3.7"/>
		<text transform="matrix(1 0 0 1 146.4058 86.042)" class="st17 st18 st19">70%</text>
	</g>
</g>
<g>
	<circle class="st13" cx="184.2" cy="84.8" r="12.5"/>
	<path class="st14" d="M184.2,71.7C184.2,71.7,184.2,71.7,184.2,71.7l0,1.2c0,0,0,0,0,0c6.5,0,11.9,5.3,11.9,11.9
		c0,5.6-4,10.4-9.2,11.6l0.2,1.2c5.9-1.3,10.2-6.6,10.2-12.8C197.3,77.6,191.4,71.7,184.2,71.7z"/>
	<circle class="st15" cx="184.2" cy="84.8" r="6.9"/>
	<g>
		<rect x="178.1" y="83" class="st16" width="12.2" height="3.7"/>
		<text transform="matrix(1 0 0 1 180.167 86.042)" class="st17 st18 st19">40%</text>
	</g>
</g>
<text transform="matrix(1 0 0 1 112.7563 47.5)" class="st14 st20 st21">How do we rate?</text>
<rect x="137.5" y="51.8" class="st14" width="25" height="1"/>
<text transform="matrix(1 0 0 1 114.8157 60.5)" class="st22 st18 st23">We rate the best amongs our competitors</text>
<text transform="matrix(1 0 0 1 66.0915 111)" class="st24"><tspan x="0" y="0" class="st25 st26">Cow chicken beef ribeye tongue swine short loin tail pork chop pork belly. Turkey corned beef pig bacon pastrami, tail tongue filet</tspan><tspan x="-2.2" y="4" class="st25 st26">mignon ham tenderloin t-bone spare ribs shoulder cow Pork chop bacon salami jerky, tongue bresaola doner tenderloin kielbasa cow.</tspan><tspan x="0.7" y="8" class="st25 st26">Frankfurter doner turkey, alcatra bresaola pancetta turducken pork belly beef ribs sausage pork. Turducken pancetta prosciutto</tspan><tspan x="21.8" y="12" class="st25 st26">pastrami short loin drumstick spare ribs ball tip chicken swine jerky meatloaf ham chuck boudin.</tspan></text>
</svg>
