<?xml version="1.0" encoding="utf-8"?>
<!-- Generator: Adobe Illustrator 19.2.0, SVG Export Plug-In . SVG Version: 6.00 Build 0)  -->
<svg version="1.1" id="Layer_1" xmlns="http://www.w3.org/2000/svg" xmlns:xlink="http://www.w3.org/1999/xlink" x="0px" y="0px"
	 viewBox="0 0 100 44.4" style="enable-background:new 0 0 100 44.4;" xml:space="preserve">
<style type="text/css">
	.st0{fill:#5169B0;}
</style>
<g>
	<polygon class="st0" points="33.7,23.4 8.7,39 4.9,39.1 1.1,35.2 2.6,27.8 12.3,25.7 14.1,27.4 10.9,28.1 4.3,29.8 3.3,34.7 
		6.1,36.5 10.9,35.1 33.6,19.7 41.3,17.6 53.9,15.5 66.1,11.1 69.2,8.8 72.3,8.8 74.8,7.2 76.5,6.8 78.3,4.4 80.4,4 80.7,1.8 
		81.8,2.8 85.3,2.8 86,1.8 89.1,1.8 91.5,0.7 92.6,0.8 93.6,0.8 94.3,1.8 96.8,1.8 97.5,2.5 98.9,3.6 98.5,4.8 98.2,4.8 97.5,6.9 
		97.1,8.8 96.8,8.8 96.4,7.8 94,7.8 92.2,8.9 92.2,13.8 94.4,13.2 91.9,16.8 89.4,16.8 88.2,16.2 88.2,13.8 84,10.6 82.4,7.5 
		83.5,11 88,14.1 87.7,15.2 85.9,15.5 86.3,22.1 84.6,24.6 86.2,30.2 89.2,34 89.2,36.1 93.6,39.9 96.8,39.6 98.2,41.3 97.5,43.8 
		91.5,43.4 76.2,29.1 65.4,29.8 60.1,27.7 52.8,27 44.8,29.1 38.5,34.4 27.3,36.8 25.6,39.6 27.7,41.3 27,43.1 22.5,43.8 21.1,42.7 
		22.8,34.7 27.7,32.6 32.9,27.7 37.1,21.8 40.6,19.4 36.4,21.4 35.4,22.8 	"/>
	<polygon class="st0" points="48.6,28.9 50.4,31 48.7,37.1 53.6,42.1 58,42.1 58,39.6 56.9,38.9 55.4,39.6 53.1,36.5 56.3,31.9 
		55.6,27.8 53.6,27.1 	"/>
	<polygon class="st0" points="66.8,30.3 73.5,29.5 71.4,34.8 72.1,38.9 74.2,39.3 75.2,40.9 74.9,42.1 69.3,42.1 67.5,36.9 	"/>
</g>
<path d="M-33-19.9"/>
</svg>
